HIERARCHY
ROOT SpineBase
{
  OFFSET 0.000000 0.000000 0.000000
  CHANNELS 6 Xposition Yposition Zposition Zrotation Xrotation Yrotation
  JOINT SpineMid
  {
    OFFSET 0.000000 36.313895 0.000000
    CHANNELS 3 Zrotation Xrotation Yrotation
    JOINT SpineShoulder
    {
      OFFSET -0.229862 26.861844 -0.901896
      CHANNELS 3 Zrotation Xrotation Yrotation
      JOINT Neck
      {
        OFFSET -0.150700 8.841059 -0.685727
        CHANNELS 3 Zrotation Xrotation Yrotation
        JOINT Head
        {
          OFFSET -2.372950 12.068307 4.595816
          CHANNELS 3 Zrotation Xrotation Yrotation
          End Site
          {
            OFFSET 0 0 0
          }
        }
      }
      JOINT ShoulderLeft
      {
        OFFSET -10.871327 -11.407607 -9.938193
        CHANNELS 3 Zrotation Xrotation Yrotation
        JOINT ElbowLeft
        {
          OFFSET -0.572062 -28.261103 -1.583194
          CHANNELS 3 Zrotation Xrotation Yrotation
          JOINT WristLeft
          {
            OFFSET -4.351598 -19.957851 3.961764
            CHANNELS 3 Zrotation Xrotation Yrotation
            JOINT HandLeft
            {
              OFFSET 0.732925 -5.239172 2.132818
              CHANNELS 3 Zrotation Xrotation Yrotation
              JOINT HandTipLeft
              {
                OFFSET -1.494316 -7.711083 1.362100
                CHANNELS 3 Zrotation Xrotation Yrotation
                End Site
                {
                  OFFSET 0 0 0
                }
              }
              JOINT ThumbLeft
              {
                OFFSET -4.299560 1.398834 -0.443202
                CHANNELS 3 Zrotation Xrotation Yrotation
                End Site
                {
                  OFFSET 0 0 0
                }
              }
            }
          }
        }
      }
      JOINT ShoulderRight
      {
        OFFSET 2.434721 -5.969465 -9.216993
        CHANNELS 3 Zrotation Xrotation Yrotation
        JOINT ElbowRight
        {
          OFFSET -11.700714 -22.135564 -5.338441
          CHANNELS 3 Zrotation Xrotation Yrotation
          JOINT WristRight
          {
            OFFSET -4.748887 -24.031966 4.774365
            CHANNELS 3 Zrotation Xrotation Yrotation
            JOINT HandRight
            {
              OFFSET -0.402459 -8.006026 3.254518
              CHANNELS 3 Zrotation Xrotation Yrotation
              JOINT HandTipRight
              {
                OFFSET -3.860762 -8.369979 1.945939
                CHANNELS 3 Zrotation Xrotation Yrotation
                End Site
                {
                  OFFSET 0 0 0
                }
              }
              JOINT ThumbRight
              {
                OFFSET 3.394501 -0.259455 -4.233121
                CHANNELS 3 Zrotation Xrotation Yrotation
                End Site
                {
                  OFFSET 0 0 0
                }
              }
            }
          }
        }
      }
    }
  }
  JOINT HipLeft
  {
    OFFSET -7.096783 0.886823 -0.561295
    CHANNELS 3 Zrotation Xrotation Yrotation
    JOINT KneeLeft
    {
      OFFSET 13.636433 -41.128991 4.451875
      CHANNELS 3 Zrotation Xrotation Yrotation
      JOINT AnkleLeft
      {
        OFFSET 12.684767 -33.031956 4.430221
        CHANNELS 3 Zrotation Xrotation Yrotation
        JOINT FootLeft
        {
          OFFSET -9.988390 -4.681830 -8.875250
          CHANNELS 3 Zrotation Xrotation Yrotation
          End Site
          {
            OFFSET 0 0 0
          }
        }
      }
    }
  }
  JOINT HipRight
  {
    OFFSET 5.304083 1.905011 -6.721201
    CHANNELS 3 Zrotation Xrotation Yrotation
    JOINT KneeRight
    {
      OFFSET -10.145031 -42.210724 3.830093
      CHANNELS 3 Zrotation Xrotation Yrotation
      JOINT AnkleRight
      {
        OFFSET 6.979199 -35.602655 -3.485424
        CHANNELS 3 Zrotation Xrotation Yrotation
        JOINT FootRight
        {
          OFFSET -5.196459 -5.947425 2.429832
          CHANNELS 3 Zrotation Xrotation Yrotation
          End Site
          {
            OFFSET 0 0 0
          }
        }
      }
    }
  }
}
MOTION
Frames: 13
Frame Time: 0.033333
60.299453 82.032269 245.920180 -0.301525 -0.297055 29.432011 0.408580 0.110547 -29.433187 -0.000000 0.000000 0.000000 -2.536734 -1.646570 0.611956 0.000000 0.000000 0.000000 -0.968884 -0.144303 0.055974 -0.141078 2.031824 -0.670330 9.883101 -6.986110 4.038560 0.416264 11.202440 -3.254164 0.000000 0.000000 0.000000 0.000000 0.000000 0.000000 0.667535 -1.545479 0.669222 -4.573260 3.233319 -1.589917 7.292401 0.726412 2.451497 -0.045617 2.129295 -2.608172 0.000000 0.000000 0.000000 0.000000 0.000000 0.000000 -1.635930 4.386924 -28.863050 6.191750 -6.674197 -1.377161 46.172465 -29.513411 20.372745 0.000000 0.000000 0.000000 -0.654851 -1.886936 -28.901774 1.316059 4.505789 -0.315505 40.559072 39.419435 -62.853111 0.000000 0.000000 0.000000
60.373745 82.007358 245.851618 -0.471215 -0.314382 29.793441 0.565138 0.038685 -29.794925 -0.000000 0.000000 0.000000 -2.694921 -1.818732 0.632781 0.000000 0.000000 0.000000 -1.130182 -0.153676 0.064902 0.253408 1.360899 -0.494170 7.458127 -4.588233 2.912705 4.490330 10.318626 -2.763771 0.000000 0.000000 0.000000 0.000000 0.000000 0.000000 -0.232504 -1.395492 0.792391 -3.928564 3.244838 -1.814790 6.999911 -0.111591 2.360029 -1.217309 2.579807 -2.675188 0.000000 0.000000 0.000000 0.000000 0.000000 0.000000 -1.566360 4.368926 -29.243026 6.218981 -6.647939 -1.375094 41.671305 -26.994705 22.323460 0.000000 0.000000 0.000000 -0.692875 -2.235649 -29.192083 2.058681 5.483304 -0.403061 53.977843 39.750030 -79.699224 0.000000 0.000000 0.000000
60.445004 81.971019 245.803678 -0.591643 -0.300337 30.012271 -0.174768 -0.051519 -30.042031 -0.052180 0.173457 -0.034938 -2.215356 -1.581096 0.812565 0.000000 0.000000 0.000000 -0.583215 0.061120 0.145867 1.352721 0.195194 -0.082050 3.619922 -0.041785 1.462838 8.112188 4.574343 -0.783168 0.000000 0.000000 0.000000 0.000000 0.000000 0.000000 0.215412 -1.214089 0.970881 -3.482759 3.631819 -1.965112 5.903922 -1.147640 2.034897 -1.671816 3.133212 -2.518992 0.000000 0.000000 0.000000 0.000000 0.000000 0.000000 -1.624427 4.405890 -29.476944 6.342830 -6.726302 -1.393987 36.198974 -25.206056 11.381707 0.000000 0.000000 0.000000 -1.343528 -1.867707 -29.500909 3.992946 5.075360 -0.585427 60.581828 39.277778 -89.414824 0.000000 0.000000 0.000000
60.459177 81.959341 245.768900 -0.724536 -0.237615 30.319926 -0.196197 -0.008116 -30.354586 -0.073837 0.213102 -0.042133 -2.167020 -1.573717 0.904298 0.000000 0.000000 0.000000 -0.625813 -0.040528 0.169590 2.137533 -0.616669 0.187092 0.243015 4.100682 0.477172 11.216233 1.044774 0.716484 0.000000 0.000000 0.000000 0.000000 0.000000 0.000000 -0.143354 -1.193628 1.030568 -2.954689 3.277992 -2.004548 5.004121 -0.881783 1.585484 0.228245 3.610232 -2.207672 0.000000 0.000000 0.000000 0.000000 0.000000 0.000000 -1.583049 4.250230 -29.815344 6.158235 -6.677666 -1.428278 33.320496 -23.842377 2.396065 0.000000 0.000000 0.000000 -1.751248 -1.729339 -29.859129 4.884429 4.641192 -0.687843 64.388618 38.690500 -94.566345 0.000000 0.000000 0.000000
60.470737 81.923617 245.727631 -0.796553 -0.015417 30.486174 -0.109526 0.124750 -30.517509 -0.088131 0.325010 -0.040042 -1.994438 -1.861860 0.890375 0.000000 0.000000 0.000000 -0.521793 -0.269021 0.155111 3.078737 -1.902622 0.636564 -2.790172 10.165528 0.090053 14.561794 -4.830007 2.717513 0.000000 0.000000 0.000000 0.000000 0.000000 0.000000 -0.781776 -1.180087 0.920140 -1.870082 2.578657 -1.851157 4.409112 0.008029 1.338111 -0.053593 3.164390 -2.320108 0.000000 0.000000 0.000000 0.000000 0.000000 0.000000 -1.860964 4.238755 -29.989538 6.708216 -6.896603 -1.408179 30.972904 -22.451725 -4.005097 0.000000 0.000000 0.000000 -2.135181 -1.781433 -30.064169 4.953364 4.111069 -0.713376 65.811697 38.815654 -96.269044 0.000000 0.000000 0.000000
60.499274 81.832371 245.660349 -0.949110 0.074559 34.541246 -0.237573 0.069078 -34.581067 -0.127586 0.244199 -0.055058 -2.171798 -1.839069 1.062544 0.000000 0.000000 0.000000 -0.653935 -0.233170 0.202190 3.154255 -0.687585 0.280858 -0.930103 4.729185 0.280827 12.592618 -0.536665 1.460899 0.000000 0.000000 0.000000 0.000000 0.000000 0.000000 -2.922813 -0.202140 1.063537 1.426852 1.502529 -1.812740 2.923267 0.337540 0.855194 0.118995 2.922061 -2.129119 0.000000 0.000000 0.000000 0.000000 0.000000 0.000000 -1.498807 5.317603 -33.797461 7.895262 -8.128984 -1.522481 29.315288 -21.443436 -7.834598 0.000000 0.000000 0.000000 -2.793791 -2.405659 -33.965399 4.264670 4.461075 -0.910118 64.766662 39.514511 -93.505523 0.000000 0.000000 0.000000
60.530022 81.708330 245.552999 -1.184592 -0.010641 34.305935 -0.386663 0.003063 -34.360726 -0.147057 0.161980 -0.074182 -2.611857 -1.689912 1.366618 0.000000 0.000000 0.000000 -1.142892 0.127115 0.288286 5.200183 0.301057 0.238118 -2.370140 2.025857 -0.059109 10.435936 0.524279 1.132485 0.000000 0.000000 0.000000 0.000000 0.000000 0.000000 -6.078972 1.226204 1.411878 6.257517 0.028779 -1.679123 0.911886 0.658135 0.243459 2.172313 2.798329 -1.526797 0.000000 0.000000 0.000000 0.000000 0.000000 0.000000 -1.726267 5.660653 -33.569774 9.176697 -8.555325 -1.414546 34.268020 -25.908154 -7.495598 0.000000 0.000000 0.000000 -2.916007 -2.399544 -33.738189 3.560381 3.769185 -0.910246 66.444911 39.902347 -94.449070 0.000000 0.000000 0.000000
60.551713 81.656543 245.371119 -1.462751 -0.243060 30.833375 -0.418405 -0.023837 -30.903687 -0.125768 0.164541 -0.087311 -3.449851 -1.973915 1.704725 0.000000 0.000000 0.000000 -1.830487 0.555837 0.384600 6.514548 0.464474 0.185863 -1.658888 2.054757 0.415736 7.035323 0.251224 0.163833 0.000000 0.000000 0.000000 0.000000 0.000000 0.000000 -10.200155 2.951961 1.914928 12.110849 -1.895221 -1.307276 -1.361292 1.055483 -0.444559 4.687879 1.850245 -0.365233 0.000000 0.000000 0.000000 0.000000 0.000000 0.000000 -2.494833 5.297036 -30.338635 10.407823 -8.144981 -1.137456 34.193766 -26.070144 -6.439249 0.000000 0.000000 0.000000 -2.813092 -1.538025 -30.467301 3.813289 1.946363 -0.820839 71.283422 39.071495 -98.432934 0.000000 0.000000 0.000000
60.646230 81.575107 245.160853 -1.838897 -0.924731 24.813252 -0.597181 -0.353772 -24.923682 -0.066173 -0.020846 -0.115834 -5.260724 -1.911905 2.416929 0.000000 0.000000 0.000000 -3.265961 0.969113 0.616899 7.872105 0.604541 0.065555 0.591054 2.138860 1.008530 2.861382 2.081704 -1.396669 0.000000 0.000000 0.000000 0.000000 0.000000 0.000000 -14.677151 5.738710 2.878405 18.105798 -3.875980 -0.742436 -3.512562 0.231795 -1.059595 7.126679 2.297182 0.532297 0.000000 0.000000 0.000000 0.000000 0.000000 0.000000 -3.375475 4.673283 -24.715502 11.503752 -7.223883 -0.820067 28.490430 -21.455263 -4.442784 0.000000 0.000000 0.000000 -1.651984 -0.818250 -24.559986 2.685623 1.121950 -0.555171 72.419269 38.920049 -97.916755 0.000000 0.000000 0.000000
60.794156 81.302756 244.996223 -2.277109 -2.046416 17.238713 -0.672215 -0.772249 -17.410937 -0.018479 -0.240517 -0.154011 -7.459195 -1.458293 3.421180 0.000000 0.000000 0.000000 -5.488148 1.065738 0.998575 10.597944 1.108926 -0.040174 1.406824 3.268160 1.078538 0.528834 1.715644 -1.978987 0.000000 0.000000 0.000000 0.000000 0.000000 0.000000 -19.188858 8.902510 4.338492 23.758725 -5.736154 -0.041257 -5.334265 -1.543517 -1.572360 10.372976 3.777704 1.294674 0.000000 0.000000 0.000000 0.000000 0.000000 0.000000 -3.982170 3.898099 -17.633202 12.225971 -5.871401 -0.496229 20.781003 -15.339026 -2.520294 0.000000 0.000000 0.000000 0.216153 0.232504 -17.048790 0.244920 1.022525 -0.173098 71.092366 39.282925 -94.029126 0.000000 0.000000 0.000000
61.060110 80.996321 244.896421 -2.524831 -3.131660 8.824962 -0.568990 -1.064599 -9.048043 0.011335 -0.539568 -0.186573 -10.901737 -2.683238 4.479609 0.000000 0.000000 0.000000 -7.923663 1.279504 1.441545 13.180743 1.547371 -0.253603 3.367469 5.807818 1.708321 -4.602475 -4.556014 -2.652632 0.000000 0.000000 0.000000 0.000000 0.000000 0.000000 -25.537864 13.255346 6.251887 30.279250 -8.657007 1.626040 -5.816307 -3.543890 -1.633977 12.453016 5.791411 1.200882 0.000000 0.000000 0.000000 0.000000 0.000000 0.000000 -4.725419 3.001548 -9.726078 12.793421 -4.494627 -0.216671 12.369220 -9.098368 1.616684 0.000000 0.000000 0.000000 1.617107 1.959297 -8.793178 -2.678559 0.587402 0.240019 66.134826 40.464793 -85.900253 0.000000 0.000000 0.000000
61.353477 80.469888 244.973039 -2.899636 -4.899732 0.696973 -0.469884 -1.417204 -1.009876 0.126697 -0.566081 -0.222435 -14.662561 -3.883296 5.798151 0.000000 0.000000 0.000000 -10.670400 0.452301 1.980730 16.098352 1.926026 -0.493698 3.652671 7.839226 1.031422 -5.520287 -6.275837 -2.435693 0.000000 0.000000 0.000000 0.000000 0.000000 0.000000 -26.971503 15.226270 7.772644 31.860572 -8.880360 1.730961 -6.821046 -6.689774 -1.956284 14.262067 10.115585 0.110487 0.000000 0.000000 0.000000 0.000000 0.000000 0.000000 -4.640779 2.463317 -2.138184 12.441843 -2.519683 0.116870 5.169127 -4.807752 6.618945 0.000000 0.000000 0.000000 2.969627 4.857696 -0.947049 -5.737611 -0.097968 0.543436 53.179893 41.020665 -69.066371 0.000000 0.000000 0.000000
61.626281 79.795902 245.180971 -3.364185 -7.015954 -6.467566 -0.319672 -1.653741 6.037201 0.270889 -0.397093 -0.259517 -18.088857 -4.898023 7.193310 0.000000 0.000000 0.000000 -13.150242 -1.029774 2.481430 18.903009 2.149582 -0.792365 1.872892 12.353226 -0.261049 -4.788554 -12.464024 -1.271470 0.000000 0.000000 0.000000 0.000000 0.000000 0.000000 -24.258419 15.209069 8.337199 29.433000 -6.980540 0.388767 -7.613842 -10.674477 -2.247068 16.120014 13.106097 -0.191790 0.000000 0.000000 0.000000 0.000000 0.000000 0.000000 -4.073080 2.456342 4.490094 11.338244 -0.170529 0.540566 -2.615933 2.639391 2.439208 0.000000 0.000000 0.000000 1.950897 8.573415 5.828154 -6.589256 -1.243998 0.921364 24.209082 33.336625 -37.600845 0.000000 0.000000 0.000000
